<?xml version="1.0" encoding="UTF-8" standalone="no"?>
<!-- Created with Inkscape (http://www.inkscape.org/) -->

<svg
   xmlns:dc="http://purl.org/dc/elements/1.1/"
   xmlns:cc="http://creativecommons.org/ns#"
   xmlns:rdf="http://www.w3.org/1999/02/22-rdf-syntax-ns#"
   xmlns:svg="http://www.w3.org/2000/svg"
   xmlns="http://www.w3.org/2000/svg"
   xmlns:xlink="http://www.w3.org/1999/xlink"
   version="1.1"
   width="64"
   height="64"
   id="svg2985">
  <defs
     id="defs2987">
    <linearGradient
       id="linearGradient8817">
      <stop
         id="stop8819"
         style="stop-color:#c34a00;stop-opacity:1"
         offset="0" />
      <stop
         id="stop8821"
         style="stop-color:#ff9751;stop-opacity:1"
         offset="1" />
    </linearGradient>
    <linearGradient
       id="linearGradient8807">
      <stop
         id="stop8809"
         style="stop-color:#9f5621;stop-opacity:1"
         offset="0" />
      <stop
         id="stop8811"
         style="stop-color:#693e1f;stop-opacity:1"
         offset="1" />
    </linearGradient>
    <linearGradient
       id="linearGradient8801">
      <stop
         id="stop8803"
         style="stop-color:#34353f;stop-opacity:1"
         offset="0" />
      <stop
         id="stop8805"
         style="stop-color:#0b0b0b;stop-opacity:1"
         offset="1" />
    </linearGradient>
    <linearGradient
       id="linearGradient8701">
      <stop
         id="stop8703"
         style="stop-color:#7b5620;stop-opacity:1"
         offset="0" />
      <stop
         id="stop8705"
         style="stop-color:#ff9800;stop-opacity:1"
         offset="1" />
    </linearGradient>
    <linearGradient
       id="linearGradient8695">
      <stop
         id="stop8697"
         style="stop-color:#000000;stop-opacity:1"
         offset="0" />
      <stop
         id="stop8699"
         style="stop-color:#3b2c25;stop-opacity:1"
         offset="1" />
    </linearGradient>
    <linearGradient
       id="linearGradient8689">
      <stop
         id="stop8691"
         style="stop-color:#000000;stop-opacity:1"
         offset="0" />
      <stop
         id="stop8693"
         style="stop-color:#3b2c25;stop-opacity:1"
         offset="1" />
    </linearGradient>
    <linearGradient
       id="linearGradient8683">
      <stop
         id="stop8685"
         style="stop-color:#000000;stop-opacity:1"
         offset="0" />
      <stop
         id="stop8687"
         style="stop-color:#3b2c25;stop-opacity:1"
         offset="1" />
    </linearGradient>
    <linearGradient
       id="linearGradient8669">
      <stop
         id="stop8671"
         style="stop-color:#000000;stop-opacity:1"
         offset="0" />
      <stop
         id="stop8673"
         style="stop-color:#3b2a25;stop-opacity:1"
         offset="1" />
    </linearGradient>
    <linearGradient
       id="linearGradient8631">
      <stop
         id="stop8633"
         style="stop-color:#000000;stop-opacity:1"
         offset="0" />
      <stop
         id="stop8635"
         style="stop-color:#4e3a31;stop-opacity:1"
         offset="1" />
    </linearGradient>
    <filter
       x="-0.10632911"
       y="-0.10632911"
       width="1.2126582"
       height="1.2126582"
       color-interpolation-filters="sRGB"
       id="filter3940">
      <feGaussianBlur
         stdDeviation="1.4257767"
         id="feGaussianBlur3942" />
    </filter>
    <linearGradient
       x1="46.906647"
       y1="38.09967"
       x2="34.230396"
       y2="33.819397"
       id="linearGradient8653"
       xlink:href="#linearGradient8631"
       gradientUnits="userSpaceOnUse" />
    <linearGradient
       x1="46.906647"
       y1="38.09967"
       x2="34.230396"
       y2="33.819397"
       id="linearGradient8655"
       xlink:href="#linearGradient8631"
       gradientUnits="userSpaceOnUse" />
    <linearGradient
       x1="46.906647"
       y1="38.09967"
       x2="34.230396"
       y2="33.819397"
       id="linearGradient8657"
       xlink:href="#linearGradient8631"
       gradientUnits="userSpaceOnUse" />
    <linearGradient
       x1="46.906647"
       y1="38.09967"
       x2="34.230396"
       y2="33.819397"
       id="linearGradient8659"
       xlink:href="#linearGradient8631"
       gradientUnits="userSpaceOnUse" />
    <linearGradient
       x1="46.906647"
       y1="38.09967"
       x2="34.230396"
       y2="33.819397"
       id="linearGradient8661"
       xlink:href="#linearGradient8631"
       gradientUnits="userSpaceOnUse" />
    <linearGradient
       x1="46.906647"
       y1="38.09967"
       x2="34.230396"
       y2="33.819397"
       id="linearGradient8663"
       xlink:href="#linearGradient8631"
       gradientUnits="userSpaceOnUse" />
    <linearGradient
       x1="46.906647"
       y1="38.09967"
       x2="34.230396"
       y2="33.819397"
       id="linearGradient8665"
       xlink:href="#linearGradient8631"
       gradientUnits="userSpaceOnUse" />
    <linearGradient
       x1="46.906647"
       y1="38.09967"
       x2="34.230396"
       y2="33.819397"
       id="linearGradient8667"
       xlink:href="#linearGradient8631"
       gradientUnits="userSpaceOnUse" />
    <linearGradient
       x1="54.174488"
       y1="48.116264"
       x2="34.406754"
       y2="37.211021"
       id="linearGradient8675"
       xlink:href="#linearGradient8669"
       gradientUnits="userSpaceOnUse" />
    <linearGradient
       x1="54.174488"
       y1="48.116264"
       x2="34.406754"
       y2="37.211021"
       id="linearGradient8677"
       xlink:href="#linearGradient8695"
       gradientUnits="userSpaceOnUse" />
    <linearGradient
       x1="54.174488"
       y1="48.116264"
       x2="34.406754"
       y2="37.211021"
       id="linearGradient8679"
       xlink:href="#linearGradient8689"
       gradientUnits="userSpaceOnUse" />
    <linearGradient
       x1="54.174488"
       y1="48.116264"
       x2="34.406754"
       y2="37.211021"
       id="linearGradient8681"
       xlink:href="#linearGradient8683"
       gradientUnits="userSpaceOnUse" />
    <linearGradient
       x1="39.090908"
       y1="29.40909"
       x2="47.942898"
       y2="31.43642"
       id="linearGradient8707"
       xlink:href="#linearGradient8689"
       gradientUnits="userSpaceOnUse" />
    <linearGradient
       x1="39.090908"
       y1="29.40909"
       x2="47.942898"
       y2="31.43642"
       id="linearGradient8709"
       xlink:href="#linearGradient8689"
       gradientUnits="userSpaceOnUse" />
    <linearGradient
       x1="39.090908"
       y1="29.40909"
       x2="47.942898"
       y2="31.43642"
       id="linearGradient8711"
       xlink:href="#linearGradient8689"
       gradientUnits="userSpaceOnUse" />
    <linearGradient
       x1="39.090908"
       y1="29.40909"
       x2="47.942898"
       y2="31.43642"
       id="linearGradient8713"
       xlink:href="#linearGradient8689"
       gradientUnits="userSpaceOnUse" />
    <linearGradient
       x1="39.090908"
       y1="29.40909"
       x2="47.942898"
       y2="31.43642"
       id="linearGradient8715"
       xlink:href="#linearGradient8689"
       gradientUnits="userSpaceOnUse" />
    <linearGradient
       x1="52.305347"
       y1="41.49905"
       x2="40.08197"
       y2="25.09724"
       id="linearGradient8717"
       xlink:href="#linearGradient8701"
       gradientUnits="userSpaceOnUse"
       gradientTransform="matrix(1.0491718,0,0,1.0491718,-0.05635344,0.9388063)" />
    <linearGradient
       x1="27.884874"
       y1="31.722305"
       x2="33.954548"
       y2="32.977272"
       id="linearGradient8725"
       xlink:href="#linearGradient8689"
       gradientUnits="userSpaceOnUse" />
    <linearGradient
       x1="27.884874"
       y1="31.722305"
       x2="33.954548"
       y2="32.977272"
       id="linearGradient8727"
       xlink:href="#linearGradient8689"
       gradientUnits="userSpaceOnUse" />
    <linearGradient
       x1="27.884874"
       y1="31.722305"
       x2="33.954548"
       y2="32.977272"
       id="linearGradient8729"
       xlink:href="#linearGradient8689"
       gradientUnits="userSpaceOnUse" />
    <linearGradient
       x1="27.884874"
       y1="31.722305"
       x2="33.954548"
       y2="32.977272"
       id="linearGradient8731"
       xlink:href="#linearGradient8689"
       gradientUnits="userSpaceOnUse" />
    <linearGradient
       x1="27.884874"
       y1="31.722305"
       x2="33.954548"
       y2="32.977272"
       id="linearGradient8733"
       xlink:href="#linearGradient8689"
       gradientUnits="userSpaceOnUse" />
    <linearGradient
       x1="27.884874"
       y1="31.722305"
       x2="33.954548"
       y2="32.977272"
       id="linearGradient8735"
       xlink:href="#linearGradient8689"
       gradientUnits="userSpaceOnUse" />
    <linearGradient
       x1="27.884874"
       y1="31.722305"
       x2="33.954548"
       y2="32.977272"
       id="linearGradient8737"
       xlink:href="#linearGradient8689"
       gradientUnits="userSpaceOnUse" />
    <linearGradient
       x1="19.852098"
       y1="28.946493"
       x2="29.545454"
       y2="32.613636"
       id="linearGradient8745"
       xlink:href="#linearGradient8683"
       gradientUnits="userSpaceOnUse" />
    <linearGradient
       x1="19.852098"
       y1="28.946493"
       x2="29.545454"
       y2="32.613636"
       id="linearGradient8747"
       xlink:href="#linearGradient8683"
       gradientUnits="userSpaceOnUse" />
    <linearGradient
       x1="19.852098"
       y1="28.946493"
       x2="29.545454"
       y2="32.613636"
       id="linearGradient8749"
       xlink:href="#linearGradient8683"
       gradientUnits="userSpaceOnUse" />
    <linearGradient
       x1="19.852098"
       y1="28.946493"
       x2="29.545454"
       y2="32.613636"
       id="linearGradient8751"
       xlink:href="#linearGradient8683"
       gradientUnits="userSpaceOnUse" />
    <linearGradient
       x1="19.852098"
       y1="28.946493"
       x2="29.545454"
       y2="32.613636"
       id="linearGradient8753"
       xlink:href="#linearGradient8683"
       gradientUnits="userSpaceOnUse" />
    <linearGradient
       x1="19.852098"
       y1="28.946493"
       x2="29.545454"
       y2="32.613636"
       id="linearGradient8755"
       xlink:href="#linearGradient8683"
       gradientUnits="userSpaceOnUse" />
    <linearGradient
       x1="19.852098"
       y1="28.946493"
       x2="29.545454"
       y2="32.613636"
       id="linearGradient8757"
       xlink:href="#linearGradient8683"
       gradientUnits="userSpaceOnUse" />
    <linearGradient
       x1="33.954544"
       y1="35.753799"
       x2="26.681818"
       y2="20.953903"
       id="linearGradient8765"
       xlink:href="#linearGradient8701"
       gradientUnits="userSpaceOnUse"
       gradientTransform="matrix(1.0491718,0,0,1.0491718,-0.05635344,0.9388063)" />
    <linearGradient
       x1="16.690638"
       y1="35.753815"
       x2="13.772727"
       y2="20.953903"
       id="linearGradient8773"
       xlink:href="#linearGradient8701"
       gradientUnits="userSpaceOnUse"
       gradientTransform="matrix(1.0491718,0,0,1.0491718,-0.05635344,0.9388063)" />
    <linearGradient
       x1="18.46114"
       y1="30.49246"
       x2="17.136364"
       y2="19.863636"
       id="linearGradient8775"
       xlink:href="#linearGradient8701"
       gradientUnits="userSpaceOnUse"
       gradientTransform="matrix(1.0491718,0,0,1.0491718,-0.05635344,0.9388063)" />
    <linearGradient
       x1="18.155548"
       y1="24.9233"
       x2="14.920545"
       y2="23.410322"
       id="linearGradient8783"
       xlink:href="#linearGradient8683"
       gradientUnits="userSpaceOnUse" />
    <linearGradient
       x1="18.155548"
       y1="24.9233"
       x2="14.920545"
       y2="23.410322"
       id="linearGradient8785"
       xlink:href="#linearGradient8683"
       gradientUnits="userSpaceOnUse" />
    <linearGradient
       x1="18.155548"
       y1="24.9233"
       x2="14.920545"
       y2="23.410322"
       id="linearGradient8787"
       xlink:href="#linearGradient8683"
       gradientUnits="userSpaceOnUse" />
    <linearGradient
       x1="18.155548"
       y1="24.9233"
       x2="14.920545"
       y2="23.410322"
       id="linearGradient8789"
       xlink:href="#linearGradient8683"
       gradientUnits="userSpaceOnUse" />
    <linearGradient
       x1="18.155548"
       y1="24.9233"
       x2="14.920545"
       y2="23.410322"
       id="linearGradient8791"
       xlink:href="#linearGradient8683"
       gradientUnits="userSpaceOnUse" />
    <linearGradient
       x1="59.133644"
       y1="47.704582"
       x2="6.2727275"
       y2="16.363636"
       id="linearGradient8799"
       xlink:href="#linearGradient8801"
       gradientUnits="userSpaceOnUse" />
    <linearGradient
       x1="67.090912"
       y1="61.454544"
       x2="-11.727273"
       y2="40.272728"
       id="linearGradient8813"
       xlink:href="#linearGradient8807"
       gradientUnits="userSpaceOnUse" />
    <linearGradient
       x1="67.090912"
       y1="61.454544"
       x2="-11.727273"
       y2="40.272728"
       id="linearGradient8815"
       xlink:href="#linearGradient8807"
       gradientUnits="userSpaceOnUse" />
    <linearGradient
       x1="65.090912"
       y1="49.18182"
       x2="-9.272727"
       y2="13.181818"
       id="linearGradient8823"
       xlink:href="#linearGradient8817"
       gradientUnits="userSpaceOnUse" />
    <filter
       x="-0.13161223"
       y="-0.11159799"
       width="1.2632245"
       height="1.223196"
       color-interpolation-filters="sRGB"
       id="filter8913">
      <feGaussianBlur
         id="feGaussianBlur8915"
         stdDeviation="0.82856638" />
    </filter>
    <filter
       x="-0.097924545"
       y="-0.17286704"
       width="1.1958491"
       height="1.3457341"
       color-interpolation-filters="sRGB"
       id="filter8917">
      <feGaussianBlur
         id="feGaussianBlur8919"
         stdDeviation="0.82856638" />
    </filter>
    <filter
       x="-0.78645748"
       y="-1.1691858"
       width="2.5729148"
       height="3.3383715"
       color-interpolation-filters="sRGB"
       id="filter8921">
      <feGaussianBlur
         id="feGaussianBlur8923"
         stdDeviation="0.82856638" />
    </filter>
    <filter
       x="-0.26457897"
       y="-0.17556497"
       width="1.5291579"
       height="1.3511299"
       color-interpolation-filters="sRGB"
       id="filter8925">
      <feGaussianBlur
         id="feGaussianBlur8927"
         stdDeviation="0.82856638" />
    </filter>
  </defs>
  <metadata
     id="metadata2990">
    <rdf:RDF>
      <cc:Work
         rdf:about="">
        <dc:format>image/svg+xml</dc:format>
        <dc:type
           rdf:resource="http://purl.org/dc/dcmitype/StillImage" />
        <dc:title></dc:title>
      </cc:Work>
    </rdf:RDF>
  </metadata>
  <g
     id="layer1">
    <path
       d="m 61.053257,51.618191 c 0,0 -8.670887,-17.677744 -8.670887,-17.677744 -0.844533,-1.721788 -4.378569,-3.009812 -7.983625,-3.009812 0,0 -25.086192,0 -25.086192,0 -3.605055,0 -7.117494,1.288024 -7.933155,3.009812 0,0 -8.3744444,17.677744 -8.3744444,17.677744 -1.8120065,3.824992 1.5090872,7.276509 7.6654134,7.276509 0,0 42.839497,0 42.839497,0 6.156326,0 9.419541,-3.451517 7.543393,-7.276509 0,0 0,0 0,0"
       id="path4030"
       style="fill:url(#linearGradient8815);fill-opacity:1;stroke:none" />
    <path
       d="m 1.1716817,44.767142 1.4511894,9.841756 58.8688519,-0.02807 1.724224,-10.099634 z"
       id="path4028"
       style="fill:url(#linearGradient8813);fill-opacity:1;stroke:none" />
    <path
       d="m 62.66191,42.268921 c 0,0 -9.111437,-17.677745 -9.111437,-17.677745 -0.887442,-1.721787 -4.601036,-3.009811 -8.389256,-3.009811 0,0 -26.360769,0 -26.360769,0 -3.78822,0 -7.479118,1.288024 -8.33622,3.009811 0,0 -8.7999338,17.677745 -8.7999338,17.677745 -1.90407064,3.824992 1.5857609,7.276509 8.0548768,7.276509 0,0 45.016082,0 45.016082,0 6.469116,0 9.898127,-3.451517 7.926657,-7.276509 0,0 0,0 0,0"
       id="rect3128"
       style="fill:url(#linearGradient8823);fill-opacity:1;stroke:none" />
    <path
       d="m 54.988021,39.548954 c 0,0 -6.166565,-14.455923 -6.166565,-14.455923 -0.642957,-1.507247 -3.742432,-2.647169 -6.988439,-2.647169 0,0 -22.587704,0 -22.587704,0 -3.246007,0 -6.325396,1.139922 -6.941793,2.647169 0,0 -5.9118349,14.455923 -5.9118349,14.455923 -1.1869878,2.902484 1.8168872,5.458432 6.8465439,5.458432 0,0 34.999431,0 34.999431,0 5.029657,0 7.988493,-2.555948 6.750361,-5.458432 0,0 0,0 0,0"
       transform="matrix(1.0964827,0,0,1.0675476,-1.6881536,-1.4494647)"
       id="rect3130"
       style="fill:#d8dee1;fill-opacity:1;stroke:none;filter:url(#filter3940)" />
    <path
       d="m 58.23105,40.676317 c 0,0 -6.620662,-15.034425 -6.620662,-15.034425 -0.690303,-1.567565 -4.018019,-2.753105 -7.503057,-2.753105 0,0 -24.251027,0 -24.251027,0 -3.485038,0 -6.791189,1.18554 -7.452976,2.753105 0,0 -6.347173,15.034425 -6.347173,15.034425 -1.2743957,3.018637 1.9506799,5.67687 7.350713,5.67687 0,0 37.576734,0 37.576734,0 5.400034,0 8.576754,-2.658233 7.247448,-5.67687 0,0 0,0 0,0"
       id="path4032"
       style="fill:url(#linearGradient8799);fill-opacity:1;stroke:none" />
    <path
       d="m 50.886782,36.975069 c -0.156029,0.146761 -0.507015,0.340931 -1.056794,0.583805 -0.544996,0.226655 -1.254536,0.340881 -2.124299,0.340881 -0.888684,0 -1.777473,-0.142688 -2.657639,-0.425265 -0.850128,-0.278899 -1.637582,-0.699569 -2.356192,-1.253591 -0.70433,-0.556829 -1.305339,-1.223961 -1.802513,-1.990069 -0.478672,-0.73759 -0.819437,-1.581368 -1.027574,-2.515989 -0.174285,-0.7826 -0.194676,-1.46832 -0.06984,-2.066222 0.117796,-0.590262 0.363356,-1.078932 0.733071,-1.473793 0.372573,-0.396987 0.862831,-0.696884 1.471518,-0.904703 0.597407,-0.215922 1.309893,-0.322821 2.143361,-0.322828 0.91822,7e-6 1.739888,0.05337 2.468604,0.160612 0.742558,0.09714 1.372589,0.189417 1.888821,0.276733 0,0 5.11402,9.922074 5.11402,9.922074 1.211681,2.350897 1.541735,4.223825 0.861317,5.466706 -0.717462,1.310479 -2.471083,1.992821 -5.231195,1.992827 -1.073391,-6e-6 -2.123714,-0.102273 -3.144715,-0.305571 -0.991074,-0.201662 -1.864916,-0.439018 -2.621238,-0.71103 0,0 -0.164869,-2.816806 -0.164869,-2.816806 0.630549,0.241658 1.381015,0.452403 2.251421,0.63136 0.904799,0.202962 1.814243,0.305104 2.722457,0.305108 1.713195,-4e-6 2.786717,-0.372379 3.210475,-1.099804 0.430645,-0.705211 0.306982,-1.7838 -0.329623,-3.182428 0,0 -0.278567,-0.612007 -0.278567,-0.612007 m -3.877468,-8.469892 c -0.228262,-0.04675 -0.52716,-0.08755 -0.896592,-0.122461 -0.358803,-0.04641 -0.832292,-0.06957 -1.4212,-0.06958 -1.104214,8e-6 -1.863685,0.285954 -2.289147,0.872634 -0.425034,0.607293 -0.492198,1.446558 -0.176334,2.550125 0.183981,0.642808 0.438619,1.210686 0.765177,1.695834 0.352097,0.497589 0.747138,0.919405 1.18386,1.26015 0.461923,0.346643 0.945547,0.606364 1.447975,0.775701 0.524537,0.170757 1.03089,0.256669 1.51577,0.256667 0.664449,2e-6 1.239901,-0.08591 1.723321,-0.256667 0.47205,-0.186194 0.813699,-0.395732 1.02632,-0.627872 0,0 -2.87915,-6.334528 -2.87915,-6.334528"
       id="path3054"
       style="font-size:28px;font-style:normal;font-variant:normal;font-weight:normal;font-stretch:normal;text-align:center;line-height:125%;letter-spacing:0px;word-spacing:0px;text-anchor:middle;fill:url(#linearGradient8717);fill-opacity:1;stroke:none;font-family:Ubuntu;-inkscape-font-specification:Ubuntu" />
    <path
       d="m 50.886782,36.975069 c -0.156029,0.146761 -0.507015,0.340931 -1.056794,0.583805 -0.544996,0.226655 -1.254536,0.340881 -2.124299,0.340881 -0.888684,0 -1.777473,-0.142688 -2.657639,-0.425265 -0.850128,-0.278899 -1.637582,-0.699569 -2.356192,-1.253591 -0.70433,-0.556829 -1.305339,-1.223961 -1.802513,-1.990069 -0.478672,-0.73759 -0.819437,-1.581368 -1.027574,-2.515989 -0.174285,-0.7826 -0.194676,-1.46832 -0.06984,-2.066222 0.117796,-0.590262 0.363356,-1.078932 0.733071,-1.473793 0.372573,-0.396987 0.862831,-0.696884 1.471518,-0.904703 0.597407,-0.215922 1.309893,-0.322821 2.143361,-0.322828 0.91822,7e-6 1.739888,0.05337 2.468604,0.160612 0.742558,0.09714 1.372589,0.189417 1.888821,0.276733 0,0 5.11402,9.922074 5.11402,9.922074 1.211681,2.350897 1.541735,4.223825 0.861317,5.466706 -0.717462,1.310479 -2.471083,1.992821 -5.231195,1.992827 -1.073391,-6e-6 -2.123714,-0.102273 -3.144715,-0.305571 -0.991074,-0.201662 -1.864916,-0.439018 -2.621238,-0.71103 0,0 -0.164869,-2.816806 -0.164869,-2.816806 0.630549,0.241658 1.381015,0.452403 2.251421,0.63136 0.904799,0.202962 1.814243,0.305104 2.722457,0.305108 1.713195,-4e-6 2.786717,-0.372379 3.210475,-1.099804 0.430645,-0.705211 0.306982,-1.7838 -0.329623,-3.182428 0,0 -0.278567,-0.612007 -0.278567,-0.612007 m -3.877468,-8.469892 c -0.228262,-0.04675 -0.52716,-0.08755 -0.896592,-0.122461 -0.358803,-0.04641 -0.832292,-0.06957 -1.4212,-0.06958 -1.104214,8e-6 -1.863685,0.285954 -2.289147,0.872634 -0.425034,0.607293 -0.492198,1.446558 -0.176334,2.550125 0.183981,0.642808 0.438619,1.210686 0.765177,1.695834 0.352097,0.497589 0.747138,0.919405 1.18386,1.26015 0.461923,0.346643 0.945547,0.606364 1.447975,0.775701 0.524537,0.170757 1.03089,0.256669 1.51577,0.256667 0.664449,2e-6 1.239901,-0.08591 1.723321,-0.256667 0.47205,-0.186194 0.813699,-0.395732 1.02632,-0.627872 0,0 -2.87915,-6.334528 -2.87915,-6.334528"
       id="path8825"
       style="font-size:28px;font-style:normal;font-variant:normal;font-weight:normal;font-stretch:normal;text-align:center;line-height:125%;letter-spacing:0px;word-spacing:0px;text-anchor:middle;fill:url(#linearGradient8717);fill-opacity:1;stroke:none;filter:url(#filter8913);font-family:Ubuntu;-inkscape-font-specification:Ubuntu" />
    <path
       d="m 21.027497,27.368231 c 0.484827,-0.08723 1.110997,-0.17941 1.877008,-0.276457 0.7756,-0.09645 1.649044,-0.144472 2.623781,-0.144479 0.706319,7e-6 1.28862,0.07476 1.750102,0.225305 0.467047,0.141062 0.851718,0.354948 1.154921,0.644507 0.106696,-0.05608 0.272818,-0.134267 0.497616,-0.234274 0.223421,-0.09939 0.495259,-0.192712 0.815241,-0.280073 0.318767,-0.09771 0.670554,-0.178694 1.05564,-0.243204 0.383671,-0.07492 0.793811,-0.112254 1.231746,-0.112261 0.847579,7e-6 1.545661,0.09619 2.099169,0.290255 0.559106,0.185449 1.011021,0.456437 1.35653,0.817184 0.367861,0.368712 0.641393,0.817238 0.818533,1.351667 0.198157,0.551369 0.347355,1.173123 0.44563,1.87183 0,0 1.008633,7.172454 1.008633,7.172454 0,0 -2.671226,0 -2.671226,0 0,0 -0.538687,-6.756869 -0.538687,-6.756869 -0.05052,-0.63344 -0.131759,-1.160366 -0.242974,-1.589055 -0.0933,-0.418571 -0.247776,-0.759921 -0.462541,-1.028266 -0.196561,-0.264218 -0.460539,-0.453851 -0.792456,-0.571318 -0.3153,-0.128263 -0.722338,-0.192036 -1.2229,-0.192044 -0.691985,8e-6 -1.268474,0.0754 -1.732576,0.227197 -0.452747,0.141347 -0.766494,0.271947 -0.93931,0.391539 0.09871,0.314911 0.166695,0.666798 0.203199,1.057748 0.0373,0.399793 0.04265,0.828738 0.01488,1.288614 0,0 -0.433323,7.172454 -0.433323,7.172454 0,0 -2.671224,0 -2.671224,0 0,0 0.819719,-6.756869 0.819719,-6.756869 0.07684,-0.63344 0.101528,-1.160366 0.07649,-1.589055 -0.02447,-0.418571 -0.117754,-0.759921 -0.278401,-1.028266 -0.143264,-0.264218 -0.368993,-0.453851 -0.677224,-0.571318 -0.289423,-0.128263 -0.676237,-0.192036 -1.162082,-0.192044 -0.206127,8e-6 -0.428159,0.0058 -0.666237,0.01737 -0.238251,0.0116 -0.470607,0.029 -0.697179,0.05222 -0.209342,0.01162 -0.405488,0.02909 -0.588519,0.05238 -0.183297,0.02334 -0.306138,0.04086 -0.368362,0.05254 0,0 -2.604898,9.963055 -2.604898,9.963055 0,0 -2.671225,0 -2.671225,0 0,0 3.572509,-11.082454 3.572509,-11.082454"
       id="path8629"
       style="font-size:28px;font-style:normal;font-variant:normal;font-weight:normal;font-stretch:normal;text-align:center;line-height:125%;letter-spacing:0px;word-spacing:0px;text-anchor:middle;fill:url(#linearGradient8765);fill-opacity:1;stroke:none;font-family:Ubuntu;-inkscape-font-specification:Ubuntu" />
    <path
       d="m 21.027497,27.368231 c 0.484827,-0.08723 1.110997,-0.17941 1.877008,-0.276457 0.7756,-0.09645 1.649044,-0.144472 2.623781,-0.144479 0.706319,7e-6 1.28862,0.07476 1.750102,0.225305 0.467047,0.141062 0.851718,0.354948 1.154921,0.644507 0.106696,-0.05608 0.272818,-0.134267 0.497616,-0.234274 0.223421,-0.09939 0.495259,-0.192712 0.815241,-0.280073 0.318767,-0.09771 0.670554,-0.178694 1.05564,-0.243204 0.383671,-0.07492 0.793811,-0.112254 1.231746,-0.112261 0.847579,7e-6 1.545661,0.09619 2.099169,0.290255 0.559106,0.185449 1.011021,0.456437 1.35653,0.817184 0.367861,0.368712 0.641393,0.817238 0.818533,1.351667 0.198157,0.551369 0.347355,1.173123 0.44563,1.87183 0,0 1.008633,7.172454 1.008633,7.172454 0,0 -2.671226,0 -2.671226,0 0,0 -0.538687,-6.756869 -0.538687,-6.756869 -0.05052,-0.63344 -0.131759,-1.160366 -0.242974,-1.589055 -0.0933,-0.418571 -0.247776,-0.759921 -0.462541,-1.028266 -0.196561,-0.264218 -0.460539,-0.453851 -0.792456,-0.571318 -0.3153,-0.128263 -0.722338,-0.192036 -1.2229,-0.192044 -0.691985,8e-6 -1.268474,0.0754 -1.732576,0.227197 -0.452747,0.141347 -0.766494,0.271947 -0.93931,0.391539 0.09871,0.314911 0.166695,0.666798 0.203199,1.057748 0.0373,0.399793 0.04265,0.828738 0.01488,1.288614 0,0 -0.433323,7.172454 -0.433323,7.172454 0,0 -2.671224,0 -2.671224,0 0,0 0.819719,-6.756869 0.819719,-6.756869 0.07684,-0.63344 0.101528,-1.160366 0.07649,-1.589055 -0.02447,-0.418571 -0.117754,-0.759921 -0.278401,-1.028266 -0.143264,-0.264218 -0.368993,-0.453851 -0.677224,-0.571318 -0.289423,-0.128263 -0.676237,-0.192036 -1.162082,-0.192044 -0.206127,8e-6 -0.428159,0.0058 -0.666237,0.01737 -0.238251,0.0116 -0.470607,0.029 -0.697179,0.05222 -0.209342,0.01162 -0.405488,0.02909 -0.588519,0.05238 -0.183297,0.02334 -0.306138,0.04086 -0.368362,0.05254 0,0 -2.604898,9.963055 -2.604898,9.963055 0,0 -2.671225,0 -2.671225,0 0,0 3.572509,-11.082454 3.572509,-11.082454"
       id="path8827"
       style="font-size:28px;font-style:normal;font-variant:normal;font-weight:normal;font-stretch:normal;text-align:center;line-height:125%;letter-spacing:0px;word-spacing:0px;text-anchor:middle;fill:url(#linearGradient8765);fill-opacity:1;stroke:none;filter:url(#filter8917);font-family:Ubuntu;-inkscape-font-specification:Ubuntu" />
    <path
       d="m 17.344353,25.667267 c -0.339262,10e-6 -0.593455,-0.07845 -0.761307,-0.23419 -0.14805,-0.163751 -0.155347,-0.377839 -0.02477,-0.640134 0.12833,-0.257797 0.338044,-0.457294 0.628663,-0.600731 0.30491,-0.150874 0.616552,-0.225741 0.937251,-0.225752 0.320685,1.1e-5 0.557243,0.07488 0.710845,0.225752 0.171975,0.143437 0.205243,0.342934 0.09718,0.600731 -0.109961,0.262295 -0.320278,0.476383 -0.631988,0.640134 -0.29724,0.155742 -0.616613,0.2342 -0.95586,0.23419"
       id="path3050"
       style="font-size:28px;font-style:normal;font-variant:normal;font-weight:normal;font-stretch:normal;text-align:center;line-height:125%;letter-spacing:0px;word-spacing:0px;text-anchor:middle;fill:url(#linearGradient8775);fill-opacity:1;stroke:none;font-family:Ubuntu;-inkscape-font-specification:Ubuntu" />
    <path
       d="m 17.344353,25.667267 c -0.339262,10e-6 -0.593455,-0.07845 -0.761307,-0.23419 -0.14805,-0.163751 -0.155347,-0.377839 -0.02477,-0.640134 0.12833,-0.257797 0.338044,-0.457294 0.628663,-0.600731 0.30491,-0.150874 0.616552,-0.225741 0.937251,-0.225752 0.320685,1.1e-5 0.557243,0.07488 0.710845,0.225752 0.171975,0.143437 0.205243,0.342934 0.09718,0.600731 -0.109961,0.262295 -0.320278,0.476383 -0.631988,0.640134 -0.29724,0.155742 -0.616613,0.2342 -0.95586,0.23419"
       id="path8829"
       style="font-size:28px;font-style:normal;font-variant:normal;font-weight:normal;font-stretch:normal;text-align:center;line-height:125%;letter-spacing:0px;word-spacing:0px;text-anchor:middle;fill:url(#linearGradient8775);fill-opacity:1;stroke:none;filter:url(#filter8921);font-family:Ubuntu;-inkscape-font-specification:Ubuntu" />
    <path
       d="m 12.835623,38.445933 c 0,0 -2.671226,0 -2.671226,0 0,0 5.534522,-11.326629 5.534522,-11.326629 0,0 1.981417,0 1.981417,0 0,0 -4.844713,11.326629 -4.844713,11.326629"
       id="path8062"
       style="font-size:28px;font-style:normal;font-variant:normal;font-weight:normal;font-stretch:normal;text-align:center;line-height:125%;letter-spacing:0px;word-spacing:0px;text-anchor:middle;fill:url(#linearGradient8773);fill-opacity:1;stroke:none;font-family:Ubuntu;-inkscape-font-specification:Ubuntu" />
    <path
       d="m 12.835623,38.445933 c 0,0 -2.671226,0 -2.671226,0 0,0 5.534522,-11.326629 5.534522,-11.326629 0,0 1.981417,0 1.981417,0 0,0 -4.844713,11.326629 -4.844713,11.326629"
       id="path8831"
       style="font-size:28px;font-style:normal;font-variant:normal;font-weight:normal;font-stretch:normal;text-align:center;line-height:125%;letter-spacing:0px;word-spacing:0px;text-anchor:middle;fill:url(#linearGradient8773);fill-opacity:1;stroke:none;filter:url(#filter8925);font-family:Ubuntu;-inkscape-font-specification:Ubuntu" />
  </g>
</svg>
